<svg width="47" height="26" viewBox="0 0 47 26" fill="none" xmlns="http://www.w3.org/2000/svg">
<g filter="url(#filter0_d_4556_14376)">
<path d="M41.6608 25.8594H3.27209C1.46574 25.8594 0 24.533 0 22.8987V1.73308C0 0.775327 0.857249 0 1.9135 0H36.7928C37.6577 0 38.4155 0.528287 38.6413 1.28461L41.546 11.0864L44.818 22.1272C45.3768 24.0085 43.8115 25.8556 41.6608 25.8556V25.8594Z" fill="#FFF100"/>
</g>
<g clip-path="url(#clip0_4556_14376)">
<path d="M19.8849 4.53379C22.6743 4.53379 24.9819 4.53379 27.2896 4.53379C29.1838 4.53379 30.4867 5.82519 30.4939 7.72365C30.5012 9.47126 30.5048 11.2196 30.4896 12.9672C30.4809 13.9277 30.1 14.7381 29.363 15.3532C28.8479 15.7832 28.2247 16.0004 27.5624 16.0091C25.8351 16.031 24.107 16.0259 22.379 16.0091C22.0388 16.0062 21.9321 16.1097 21.9539 16.4428C21.98 16.8414 21.9561 17.2437 21.9633 17.6438C21.9713 18.1197 22.1294 18.2756 22.6003 18.2844C23.2162 18.296 23.8321 18.3157 24.4473 18.3092C24.6881 18.307 24.7948 18.3565 24.7904 18.6262C24.7766 19.4511 24.7708 20.2776 24.794 21.1018C24.8035 21.4312 24.6453 21.4422 24.3979 21.4422C21.4018 21.4451 18.4057 21.4546 15.4096 21.4618C14.5521 21.464 13.6939 21.4575 12.8364 21.4684C12.6078 21.4713 12.5179 21.4116 12.5222 21.1652C12.5353 20.3279 12.5324 19.4905 12.5215 18.6531C12.5179 18.409 12.5832 18.3055 12.8472 18.3092C13.4146 18.3179 13.9819 18.296 14.5492 18.2866C15.0294 18.2778 15.1905 18.1408 15.1912 17.6664C15.1977 14.5348 15.1977 11.4033 15.1941 8.27169C15.1941 7.83807 14.9859 7.63401 14.5412 7.62818C13.9739 7.6209 13.4058 7.62818 12.8385 7.64786C12.5977 7.65661 12.4947 7.60195 12.4998 7.33157C12.5157 6.49639 12.5063 5.65903 12.5034 4.82093C12.5027 4.64311 12.5179 4.56149 12.758 4.55566C15.2942 4.49444 17.8304 4.56367 19.8849 4.53379ZM20.6299 5.47683V5.47537C18.3825 5.47537 16.135 5.47537 13.8875 5.47683C13.7497 5.47683 13.5466 5.41634 13.5023 5.58761C13.4204 5.9039 13.3993 6.25298 13.5038 6.55688C13.5916 6.81268 13.8846 6.67421 14.0892 6.69098C14.2336 6.70264 14.3794 6.69535 14.5238 6.69098C15.1303 6.67203 15.5866 6.92783 15.9355 7.42194C16.2757 7.90293 16.1836 8.45097 16.1793 8.97205C16.1575 11.8121 16.1502 14.6521 16.1858 17.4922C16.1901 17.8333 16.1793 18.17 15.995 18.4775C15.6032 19.1312 15.0077 19.2908 14.2916 19.2646C13.4305 19.2332 13.437 19.2588 13.4537 20.1311C13.4588 20.4051 13.5386 20.5261 13.8346 20.513C14.4012 20.4889 14.9685 20.4926 15.5358 20.494C18.0125 20.5013 20.4892 20.5123 22.9659 20.5203C23.8749 20.5232 23.9373 20.4401 23.8118 19.5182C23.7842 19.3171 23.6986 19.2471 23.5085 19.2507C23.1821 19.2573 22.8564 19.2566 22.5299 19.2522C21.6804 19.2413 21.0456 18.608 21.0369 17.7509C21.0289 16.9981 21.0449 16.2453 21.0304 15.4932C21.0246 15.1951 21.1203 15.085 21.4258 15.0909C22.3318 15.1076 23.2387 15.1113 24.144 15.0974C25.3628 15.0792 26.5845 15.1171 27.7989 14.948C28.75 14.8154 29.3796 14.1041 29.3818 13.1392C29.3855 11.3792 29.3942 9.61921 29.3963 7.85921C29.3978 6.34189 28.5512 5.48193 27.0466 5.47902C24.9079 5.47392 22.7693 5.47756 20.6307 5.47756L20.6299 5.47683Z" fill="#251D1C"/>
<path d="M20.6302 5.47682C22.7688 5.47682 24.9075 5.47317 27.0461 5.47828C28.5507 5.48192 29.3973 6.34188 29.3959 7.85846C29.3944 9.61846 29.3857 11.3785 29.3813 13.1385C29.3792 14.1034 28.7502 14.8147 27.7984 14.9473C26.5847 15.1164 25.3631 15.0785 24.1436 15.0967C23.2375 15.1105 22.3306 15.1069 21.4253 15.0901C21.1206 15.0843 21.0241 15.1951 21.0299 15.4924C21.0451 16.2445 21.0292 16.9973 21.0364 17.7502C21.0451 18.6072 21.6799 19.2405 22.5294 19.2515C22.8559 19.2558 23.1823 19.2558 23.5081 19.25C23.6981 19.2464 23.7837 19.3163 23.8113 19.5175C23.9368 20.4394 23.8744 20.5224 22.9654 20.5195C20.4887 20.5115 18.012 20.5006 15.5353 20.4933C14.968 20.4918 14.4007 20.4882 13.8341 20.5122C13.5389 20.5246 13.4583 20.4044 13.4532 20.1304C13.4366 19.258 13.43 19.2325 14.2911 19.2638C15.0079 19.2901 15.6028 19.1297 15.9945 18.4768C16.1788 18.1692 16.1897 17.8325 16.1853 17.4915C16.1498 14.6514 16.157 11.8114 16.1788 8.97131C16.1831 8.45023 16.2745 7.90292 15.935 7.4212C15.5854 6.92636 15.1291 6.67056 14.5233 6.69023C14.3782 6.69461 14.2324 6.70189 14.0887 6.69023C13.8842 6.67347 13.5911 6.81194 13.5033 6.55614C13.3988 6.25224 13.4199 5.90388 13.5019 5.58686C13.5461 5.4156 13.7492 5.47682 13.8871 5.47609C16.1345 5.4739 18.382 5.47463 20.6295 5.47463V5.47609L20.6302 5.47682ZM21.0183 10.1621H21.0205C21.0205 11.1919 21.0219 12.2224 21.0197 13.2522C21.0197 13.4795 21.0459 13.6625 21.344 13.6566C22.0071 13.6435 22.6723 13.6697 23.334 13.634C24.1247 13.591 24.7384 13.0073 24.7537 12.2515C24.7812 10.8953 24.7849 9.53684 24.7537 8.18058C24.7326 7.30532 24.0688 6.70772 23.199 6.69898C22.6078 6.69315 22.0165 6.71355 21.426 6.69023C21.1025 6.67784 21.0089 6.79663 21.0132 7.10855C21.0277 8.12593 21.019 9.14403 21.019 10.1621H21.0183Z" fill="#FF0000"/>
<path d="M21.0183 10.1621C21.0183 9.14404 21.0277 8.12593 21.0125 7.10856C21.0081 6.79591 21.101 6.67712 21.4253 6.69024C22.0158 6.71356 22.607 6.69316 23.1983 6.69899C24.0674 6.70773 24.7319 7.30533 24.7529 8.18059C24.7849 9.53685 24.7812 10.8953 24.7529 12.2515C24.7377 13.0073 24.1232 13.591 23.3332 13.634C22.6716 13.6697 22.0064 13.6442 21.3433 13.6566C21.0451 13.6625 21.0183 13.4795 21.019 13.2522C21.0212 12.2224 21.0197 11.1919 21.0197 10.1621H21.0176H21.0183ZM21.957 10.1403C21.9665 10.1403 21.9752 10.1403 21.9846 10.1403C21.9846 10.8793 21.994 11.6175 21.9795 12.3565C21.9744 12.613 22.0615 12.7005 22.3111 12.6866C22.6114 12.6699 22.9139 12.6888 23.215 12.6808C23.5987 12.6706 23.8193 12.4563 23.8193 12.0679C23.8193 10.7838 23.8091 9.49968 23.8026 8.2163C23.8004 7.85629 23.6118 7.65733 23.2629 7.63692C22.9386 7.61725 22.6114 7.64057 22.2864 7.62381C22.0325 7.61069 21.9483 7.7098 21.9527 7.96123C21.9643 8.68782 21.957 9.41514 21.957 10.1417V10.1403Z" fill="#251D1C"/>
</g>
<defs>
<filter id="filter0_d_4556_14376" x="0" y="0" width="46.9321" height="25.8594" filterUnits="userSpaceOnUse" color-interpolation-filters="sRGB">
<feFlood flood-opacity="0" result="BackgroundImageFix"/>
<feColorMatrix in="SourceAlpha" type="matrix" values="0 0 0 0 0 0 0 0 0 0 0 0 0 0 0 0 0 0 127 0" result="hardAlpha"/>
<feOffset dx="2"/>
<feColorMatrix type="matrix" values="0 0 0 0 0 0 0 0 0 0 0 0 0 0 0 0 0 0 0.25 0"/>
<feBlend mode="normal" in2="BackgroundImageFix" result="effect1_dropShadow_4556_14376"/>
<feBlend mode="normal" in="SourceGraphic" in2="effect1_dropShadow_4556_14376" result="shape"/>
</filter>
<clipPath id="clip0_4556_14376">
<rect width="18" height="16.9412" fill="white" transform="translate(12.5 4.52942)"/>
</clipPath>
</defs>
</svg>
