<svg width="60" height="60" viewBox="0 0 60 60" fill="none" xmlns="http://www.w3.org/2000/svg">
<g clip-path="url(#clip0_29832_26052)">
<path d="M59.4544 0.48064C59.4544 0.160213 59.2942 0 58.9738 0C49.2214 0 39.469 0 29.7148 0C19.9607 0 10.1783 0 0.40819 0C0.139597 0 0.00530096 0.134885 0.00530096 0.404656C0.00530096 14.4333 0.00530117 28.462 0 42.4907C0 42.7381 0.0759834 42.8759 0.289797 42.9978C2.81316 44.4539 5.33298 45.917 7.8528 47.3819C15.0465 51.5592 22.2402 55.7383 29.4321 59.9209C29.6177 60.0287 29.7519 60.0234 29.9322 59.9227C31.7682 58.8996 33.6077 57.8835 35.4454 56.8657C39.5043 54.6162 43.5633 52.3667 47.624 50.1173C51.4532 47.995 55.2824 45.871 59.1169 43.7594C59.382 43.6127 59.4597 43.4537 59.4597 43.1639C59.4527 28.9356 59.4544 14.709 59.4544 0.48064Z" fill="white"/>
<path d="M59.1121 0.818859C59.1121 0.50212 58.9537 0.34375 58.637 0.34375C48.9968 0.34375 39.3566 0.34375 29.7147 0.34375C20.0728 0.34375 10.4029 0.34375 0.74529 0.34375C0.479788 0.34375 0.347037 0.477083 0.347037 0.74375C0.347037 14.611 0.347037 28.4783 0.341797 42.3455C0.341797 42.59 0.416906 42.7263 0.62826 42.8468C3.12258 44.2861 5.61341 45.7324 8.10424 47.1804C15.2152 51.3097 22.3261 55.4407 29.4352 59.5752C29.6187 59.6817 29.7514 59.6765 29.9296 59.5769C31.7444 58.5656 33.5628 57.5612 35.3793 56.5551C39.3916 54.3315 43.4038 52.1079 47.4178 49.8844C51.2029 47.7865 54.9881 45.687 58.7785 43.5996C59.0405 43.4547 59.1173 43.2975 59.1173 43.011C59.1104 28.9464 59.1121 14.8835 59.1121 0.818859ZM56.1514 41.8477C52.8152 43.6835 49.4841 45.5315 46.1531 47.3778C42.2719 49.528 38.389 51.68 34.5077 53.8302C32.9863 54.6721 31.4649 55.5141 29.947 56.3612C29.7811 56.4538 29.6571 56.4451 29.4946 56.3507C24.0396 53.1769 18.5828 50.0084 13.1243 46.8381C9.83699 44.9289 6.5514 43.0215 3.26057 41.1176C3.07367 41.0093 3.00206 40.8852 3.00206 40.6686C3.0073 28.2197 3.00555 15.7708 3.0073 3.32192C3.0073 3.00052 3.0073 3.00052 3.36363 3.00052C12.1532 3.00052 20.9444 3.00052 29.7339 3.00052C38.5235 3.00052 47.2518 3.00052 56.0099 3.00052C56.0973 3.00052 56.1828 3.00401 56.2702 3.00052C56.4012 2.99528 56.4571 3.05816 56.4501 3.18567C56.4466 3.25554 56.4501 3.32716 56.4501 3.39877C56.4501 16.0363 56.4501 28.6756 56.4553 41.3132C56.4553 41.57 56.3907 41.7167 56.1514 41.8494V41.8477Z" fill="black"/>
<path d="M51.4518 6.23438C36.8544 6.23438 22.2553 6.23438 7.65788 6.23438C7.30155 6.23438 7.2998 6.23438 7.2998 6.58197C7.2998 10.6291 7.2998 14.6763 7.2998 18.7235C7.2998 19.0606 7.29981 19.0623 7.64566 19.0623C9.19675 19.0623 10.7461 19.0658 12.2972 19.0588C12.4876 19.0588 12.5976 19.1165 12.6797 19.2929C12.8911 19.7505 13.1216 20.1977 13.3417 20.6518C14.7094 23.478 16.2238 26.2344 17.4797 29.1147C17.5094 29.1828 17.5286 29.2789 17.6369 29.258C17.7452 29.237 17.7487 29.1444 17.7627 29.0571C17.8553 28.451 17.9409 27.8431 18.0439 27.2387C18.4946 24.5855 18.9522 21.9357 19.4029 19.2824C19.4326 19.1112 19.5112 19.0623 19.6701 19.0623C21.4011 19.0658 23.1321 19.0658 24.8631 19.0623C25.0483 19.0623 25.1147 19.113 25.0797 19.3121C24.5906 22.0545 24.1068 24.7968 23.6212 27.5392C22.9312 31.4274 22.2413 35.3156 21.5548 39.2056C21.5199 39.4082 21.4343 39.4763 21.2282 39.4763C19.6229 39.4693 18.0177 39.4693 16.4125 39.4763C16.2186 39.4763 16.1173 39.4082 16.0299 39.2387C14.7671 36.7898 13.4902 34.3497 12.2326 31.899C11.8413 31.1357 11.5793 30.313 11.2509 29.5217C11.2142 29.4326 11.2002 29.2981 11.0623 29.3208C10.9417 29.3401 10.9522 29.4641 10.9452 29.5514C10.8876 30.2029 10.7566 30.8422 10.6448 31.4868C10.2046 34.0527 9.76967 36.6204 9.32251 39.1863C9.28408 39.4047 9.36967 39.492 9.53911 39.5881C13.0186 41.5724 16.4946 43.5619 19.9723 45.5497C22.9784 47.2684 25.9845 48.9855 28.9889 50.706C29.1443 50.7951 29.2701 50.851 29.4622 50.7444C32.1627 49.237 34.8684 47.74 37.574 46.2431C41.1671 44.2536 44.7601 42.2641 48.3548 40.2746C48.7793 40.0387 49.2037 39.8012 49.6579 39.5479C49.5181 39.4449 49.4046 39.478 49.2998 39.478C45.5374 39.4763 41.7767 39.478 38.0142 39.478C37.9426 39.478 37.8727 39.4728 37.8011 39.478C37.6369 39.4903 37.6002 39.4187 37.6299 39.2649C37.7068 38.8719 37.7679 38.4737 37.8378 38.0789C38.5103 34.2903 39.1828 30.5034 39.8553 26.7147C40.2867 24.2815 40.7147 21.8501 41.1461 19.4169C41.2072 19.0711 41.2107 19.0711 41.5671 19.0711C43.3854 19.0711 45.202 19.0711 47.0203 19.0711C47.3365 19.0711 47.3382 19.0711 47.2823 19.3855C46.8509 21.8344 46.4177 24.2815 45.988 26.7304C45.5531 29.2021 45.1216 31.6737 44.6902 34.147C44.6326 34.4789 44.6378 34.4807 44.9871 34.4807C47.1356 34.4807 49.2841 34.4807 51.4326 34.4807C51.6771 34.4807 51.8 34.3601 51.8011 34.1191C51.8011 24.9453 51.8011 15.7715 51.8011 6.59769C51.8011 6.36247 51.6852 6.24427 51.4535 6.24311L51.4518 6.23438ZM14.0981 13.3715C13.4989 13.5479 12.8841 13.513 12.2727 13.5165C11.726 13.52 11.7836 13.4641 11.7802 14.0108C11.7802 14.3025 11.7732 14.5925 11.7819 14.8842C11.7871 15.0536 11.7365 15.1287 11.5548 15.1217C11.2719 15.1095 10.9889 15.1112 10.7059 15.1217C10.5365 15.127 10.4649 15.0711 10.4666 14.8929C10.4701 13.1304 10.4701 11.368 10.4666 9.6073C10.4666 9.42739 10.5435 9.37848 10.7094 9.38023C11.1409 9.38721 11.574 9.38197 12.0946 9.38197C12.6553 9.40293 13.312 9.31909 13.9531 9.49027C14.6954 9.68765 15.2788 10.0789 15.5042 10.8562C15.8378 12.0038 15.2509 13.0326 14.0963 13.3732L14.0981 13.3715ZM23.4867 15.12C23.3312 15.106 23.1723 15.1165 23.0151 15.1165C22.3374 15.1165 22.3461 15.113 22.0736 14.4981C21.7312 13.7296 21.9636 13.8711 21.1164 13.8588C20.526 13.8518 19.9356 13.8728 19.3452 13.8501C19.0692 13.8396 18.926 13.9374 18.8422 14.1925C18.7601 14.4387 18.636 14.6693 18.5435 14.9121C18.4876 15.0571 18.409 15.1235 18.2465 15.1182C17.9391 15.1077 17.6317 15.1077 17.326 15.1182C17.1339 15.1252 17.1181 15.0711 17.1933 14.9069C17.7382 13.7366 18.2762 12.5628 18.816 11.3907C19.0885 10.7968 19.3679 10.2064 19.6334 9.60905C19.7068 9.44311 19.7994 9.36625 19.988 9.37499C20.271 9.39071 20.5557 9.38896 20.8369 9.37499C21.0133 9.36625 21.1042 9.43787 21.1758 9.59507C21.8954 11.1619 22.6203 12.7252 23.3435 14.2903C23.436 14.4911 23.5251 14.692 23.6229 14.8894C23.7016 15.0483 23.7033 15.1374 23.485 15.1182L23.4867 15.12ZM34.416 11.1916C34.416 10.6728 34.4229 10.1523 34.4125 9.6335C34.409 9.43787 34.4788 9.368 34.6727 9.37673C34.94 9.38896 35.2072 9.38896 35.4745 9.37673C35.6736 9.36625 35.7312 9.4466 35.7295 9.637C35.7225 10.5104 35.726 11.3837 35.726 12.2571C35.726 13.1147 35.719 13.9724 35.7312 14.83C35.7347 15.0606 35.6596 15.1357 35.4343 15.1217C35.1845 15.1042 34.9312 15.106 34.6797 15.1217C34.4684 15.1357 34.4107 15.0518 34.4125 14.8492C34.4195 13.63 34.416 12.4108 34.416 11.1916ZM25.9601 14.8719C25.9671 13.9898 25.9636 13.1095 25.9636 12.2274C25.9636 11.3697 25.9688 10.5121 25.9601 9.65272C25.9583 9.45359 26.0177 9.39769 26.2238 9.37149C26.8055 9.29988 27.2107 9.48154 27.581 9.96538C28.2727 10.8719 29.043 11.7173 29.7802 12.5872C29.8151 12.6291 29.8483 12.6746 29.8867 12.713C29.9286 12.7549 29.9601 12.837 30.0317 12.809C30.105 12.7811 30.0754 12.699 30.0754 12.6414C30.0771 11.6964 30.0753 10.7514 30.0771 9.80817C30.0771 9.33306 30.0317 9.38197 30.5103 9.38023C30.7234 9.38023 30.9347 9.38721 31.1478 9.37848C31.319 9.36975 31.3889 9.43263 31.3836 9.60905C31.3749 9.93219 31.3819 10.2553 31.3819 10.5767C31.3819 11.9863 31.3819 13.3942 31.3819 14.8038C31.3819 15.1147 31.3767 15.0798 31.0692 15.1235C30.5085 15.2021 30.147 14.9837 29.8011 14.5435C29.078 13.6213 28.2937 12.7479 27.5321 11.8571C27.471 11.7855 27.4221 11.637 27.3138 11.6842C27.2195 11.7261 27.2719 11.8693 27.2701 11.9671C27.2666 12.9278 27.2631 13.8885 27.2719 14.8475C27.2736 15.0518 27.216 15.1304 27.0046 15.1182C26.7374 15.1025 26.4701 15.1042 26.2029 15.1182C26.0125 15.127 25.9601 15.0501 25.9601 14.8702V14.8719ZM36.1644 19.3243C35.4972 23.0885 34.8369 26.8527 34.1767 30.6169C33.6806 33.4449 33.1863 36.2711 32.6902 39.099C32.6471 39.3447 32.4981 39.4676 32.243 39.4676C31.347 39.4676 30.4492 39.4676 29.5531 39.4676C28.6256 39.4676 27.6963 39.4676 26.7688 39.4676C26.4841 39.4676 26.4736 39.4483 26.5243 39.1671C27.1775 35.4815 27.8273 31.7942 28.4806 28.1086C28.9417 25.506 29.4046 22.9051 29.8657 20.3025C29.9234 19.9776 29.9863 19.6527 30.0334 19.3261C30.0596 19.1444 30.126 19.0553 30.3321 19.0553C32.2046 19.0623 34.0771 19.0623 35.9496 19.0553C36.1539 19.0553 36.2011 19.1147 36.1644 19.3208V19.3243ZM43.9164 15.1217C43.0919 15.1217 43.0972 15.1235 42.5627 14.4894C41.8238 13.6108 41.078 12.7374 40.3304 11.8641C40.2692 11.7925 40.2151 11.6457 40.1103 11.6911C40.016 11.7313 40.0666 11.8763 40.0666 11.9741C40.0631 12.9348 40.0596 13.8955 40.0684 14.8545C40.0701 15.0623 40.0055 15.1357 39.7994 15.1217C39.5478 15.106 39.2946 15.1042 39.0448 15.1217C38.8072 15.1392 38.7548 15.0414 38.7566 14.823C38.7636 13.3593 38.7601 11.8955 38.7601 10.43C38.7601 10.154 38.7653 9.87804 38.7601 9.60381C38.7566 9.44486 38.8125 9.36451 38.9784 9.38197C38.9854 9.38197 38.9941 9.38197 39.0029 9.38197C39.5676 9.36684 40.0381 9.58459 40.4142 10.0352C41.1426 10.9016 41.8762 11.7663 42.6081 12.6309C42.6343 12.6606 42.657 12.692 42.6867 12.72C42.7304 12.7601 42.7601 12.844 42.8317 12.816C42.9033 12.7881 42.8754 12.706 42.8754 12.6483C42.8771 11.7034 42.8754 10.7584 42.8771 9.81516C42.8771 9.3383 42.8299 9.38547 43.3068 9.38372C43.4954 9.38372 43.6841 9.38372 43.8727 9.38372C44.1802 9.38372 44.1802 9.38372 44.1802 9.70337C44.1802 10.554 44.1802 11.4029 44.1802 12.2536C44.1802 13.12 44.1749 13.9846 44.1836 14.851C44.1854 15.0536 44.1295 15.1252 43.9164 15.1252V15.1217ZM48.5225 14.3532C48.5225 14.5261 48.5138 14.699 48.5243 14.8719C48.5347 15.0518 48.4736 15.1304 48.2832 15.12C48.0247 15.1077 47.7644 15.1042 47.5059 15.12C47.2823 15.1339 47.2055 15.0606 47.209 14.83C47.2212 13.9654 47.2142 13.099 47.2142 12.2344C47.2142 11.3767 47.2195 10.5191 47.2107 9.66145C47.209 9.45184 47.2649 9.35927 47.4885 9.37499C47.7312 9.39245 47.9758 9.39245 48.2186 9.37499C48.4561 9.35752 48.5295 9.43612 48.5278 9.67892C48.5173 11.237 48.5225 12.7933 48.5225 14.3514V14.3532Z" fill="black"/>
<path d="M13.3723 10.4493C12.9042 10.3672 12.4326 10.4109 11.9627 10.4039C11.8352 10.4039 11.7793 10.4668 11.7793 10.5943C11.7793 11.1602 11.781 11.7244 11.7793 12.2904C11.7793 12.4353 11.8544 12.4842 11.9837 12.4842C12.1636 12.4842 12.3452 12.4842 12.5251 12.4842C12.7994 12.4842 13.0754 12.5 13.3461 12.4493C13.664 12.3899 13.9505 12.2711 14.1164 11.9672C14.4762 11.3139 14.1164 10.5786 13.3723 10.4493Z" fill="black"/>
<path d="M20.4917 10.809C20.4707 10.7618 20.462 10.6919 20.3921 10.6954C20.3379 10.6989 20.3275 10.7566 20.3083 10.8002C20.0358 11.436 19.765 12.0736 19.4925 12.7094C19.4227 12.8736 19.489 12.9225 19.6462 12.9208C19.8978 12.9173 20.1493 12.9208 20.4008 12.9208C20.6611 12.9208 20.9196 12.9208 21.1799 12.9208C21.3318 12.9208 21.3773 12.8684 21.3126 12.7181C21.0366 12.0841 20.7676 11.4465 20.4934 10.8107L20.4917 10.809Z" fill="black"/>
</g>
<defs>
<clipPath id="clip0_29832_26052">
<rect width="59.4597" height="60" fill="white"/>
</clipPath>
</defs>
</svg>
