<svg width="20" height="20" viewBox="0 0 20 20" fill="none" xmlns="http://www.w3.org/2000/svg">
<path d="M15.9433 7.00123C15.7279 6.78715 15.4366 6.66699 15.133 6.66699C14.8293 6.66699 14.538 6.78715 14.3226 7.00123L10.1962 11.0702L6.1273 7.00123C5.91194 6.78715 5.62062 6.66699 5.31696 6.66699C5.0133 6.66699 4.72198 6.78715 4.50662 7.00123C4.39889 7.10809 4.31338 7.23521 4.25502 7.37528C4.19667 7.51535 4.16663 7.66558 4.16663 7.81732C4.16663 7.96905 4.19667 8.11929 4.25502 8.25936C4.31338 8.39942 4.39889 8.52655 4.50662 8.6334L9.38014 13.5069C9.48699 13.6147 9.61412 13.7002 9.75419 13.7585C9.89425 13.8169 10.0445 13.8469 10.1962 13.8469C10.348 13.8469 10.4982 13.8169 10.6383 13.7585C10.7783 13.7002 10.9055 13.6147 11.0123 13.5069L15.9433 8.6334C16.051 8.52655 16.1365 8.39942 16.1949 8.25936C16.2532 8.11929 16.2833 7.96905 16.2833 7.81732C16.2833 7.66558 16.2532 7.51535 16.1949 7.37528C16.1365 7.23521 16.051 7.10809 15.9433 7.00123Z" fill="#111928"/>
</svg>
