<?xml version="1.0" encoding="utf-8"?>
<!-- Generator: Adobe Illustrator 28.1.0, SVG Export Plug-In . SVG Version: 6.00 Build 0)  -->
<svg version="1.1" id="Layer_1" xmlns="http://www.w3.org/2000/svg" xmlns:xlink="http://www.w3.org/1999/xlink" x="0px" y="0px"
	 viewBox="0 0 1000 1000" style="enable-background:new 0 0 1000 1000;" xml:space="preserve">
<style type="text/css">
	.st0{fill:#231F20;}
	.st1{fill:url(#SVGID_1_);}
	.st2{fill:url(#SVGID_00000100354081876827537180000017008624746035691163_);}
	.st3{fill:url(#SVGID_00000170999564626606227590000003636146057830851767_);}
	.st4{fill:url(#SVGID_00000055667902459396614800000013277382884514807940_);}
	.st5{fill:url(#SVGID_00000168095275025557764440000016339579018019530911_);}
	.st6{fill:url(#SVGID_00000139263060408528810550000014802820259915338923_);}
	.st7{fill:url(#SVGID_00000134969821772605151540000017564849729325281693_);}
	.st8{fill:url(#SVGID_00000160893004939915169140000000516858976037318565_);}
	.st9{fill:url(#SVGID_00000179639055201574548110000014619612690045758346_);}
	.st10{fill:url(#SVGID_00000045593343029256637690000014302793026338295220_);}
	.st11{fill:#2B2C2D;}
	.st12{fill:#FFFFFF;}
</style>
<polygon class="st0" points="843.5,945.5 500,852 156.5,945.5 156.5,54.5 843.5,54.5 "/>
<linearGradient id="SVGID_1_" gradientUnits="userSpaceOnUse" x1="105.5" y1="894.5" x2="894.5" y2="105.5">
	<stop  offset="0" style="stop-color:#1B1B1B"/>
	<stop  offset="0.1322" style="stop-color:#1E1E1E"/>
	<stop  offset="0.6669" style="stop-color:#494949"/>
	<stop  offset="0.9495" style="stop-color:#5A5A5A"/>
</linearGradient>
<polygon class="st1" points="843.5,945.5 500,852 156.5,945.5 156.5,54.5 843.5,54.5 "/>
<linearGradient id="SVGID_00000129905476593515239150000001168827379482628738_" gradientUnits="userSpaceOnUse" x1="132.39" y1="666.9331" x2="867.61" y2="469.9315">
	<stop  offset="0.1629" style="stop-color:#A5A6AD"/>
	<stop  offset="0.6603" style="stop-color:#C4C8CB"/>
	<stop  offset="1" style="stop-color:#D5DADB"/>
</linearGradient>
<polygon style="fill:url(#SVGID_00000129905476593515239150000001168827379482628738_);" points="806,896.9 500,813.6 194,896.9 
	194,240 806,240 "/>
<g>
	
		<image style="overflow:visible;opacity:0.75;" width="2468" height="2634" xlink:href="E0C7E805A988FC5D.png"  transform="matrix(0.24 0 0 0.24 203.8 263.28)">
	</image>
	<g>
		<g>
			
				<linearGradient id="SVGID_00000162348327474062371140000010382946069204528571_" gradientUnits="userSpaceOnUse" x1="494.5769" y1="495.1125" x2="558.73" y2="430.9595">
				<stop  offset="0.1617" style="stop-color:#1B1B1B"/>
				<stop  offset="0.3418" style="stop-color:#1E1E1E"/>
				<stop  offset="0.7724" style="stop-color:#494949"/>
				<stop  offset="1" style="stop-color:#5A5A5A"/>
			</linearGradient>
			<path style="fill:url(#SVGID_00000162348327474062371140000010382946069204528571_);" d="M541.8,400.3l-31.5,0l0.4,120.8l31.5,0
				c7.3,0,13.4-5.9,13.4-13.4l-0.5-93.7C555.1,406.4,549.2,400.3,541.8,400.3z"/>
			
				<linearGradient id="SVGID_00000098211321753677586860000002252078801205869442_" gradientUnits="userSpaceOnUse" x1="253.308" y1="810.1243" x2="713.2501" y2="350.1823">
				<stop  offset="0.1617" style="stop-color:#1B1B1B"/>
				<stop  offset="0.3418" style="stop-color:#1E1E1E"/>
				<stop  offset="0.7724" style="stop-color:#494949"/>
				<stop  offset="1" style="stop-color:#5A5A5A"/>
			</linearGradient>
			<path style="fill:url(#SVGID_00000098211321753677586860000002252078801205869442_);" d="M228,271.5v583.9l272-74l272,74V271.5
				H228z M713.9,407.6l-0.1,119.2c0,6.3-0.8,12.6-2.6,18.7c-4.5,15.5-13,29.7-26.3,39.9c-3.9,3-8.4,5.3-13.1,6.9
				c-12.9,4.4-26.4,6.6-40,6.7l-121.5,0.4v41.5c0,7.6,5.9,13.2,13.4,13.2l54.4,0.5l-0.1,73.4L286,728l0.3-73.4l50.3-0.5
				c7.5,0,13.4-5.6,13.4-13.2l0-226.9c0-7.6-5.9-13.7-13.4-13.7l-24.8,0l-25.8,0.5l0-72.7l358.7,0c23.4,1.2,44.9,12.7,58.3,33.4
				C711.5,374.9,714.7,390.3,713.9,407.6z"/>
		</g>
	</g>
</g>
<g>
	
		<linearGradient id="SVGID_00000116956580129662855500000013310492631217213841_" gradientUnits="userSpaceOnUse" x1="190.5116" y1="173.354" x2="383.4884" y2="121.646">
		<stop  offset="0.1629" style="stop-color:#A5A6AD"/>
		<stop  offset="0.5185" style="stop-color:#C4C8CB"/>
		<stop  offset="0.7614" style="stop-color:#D5DADB"/>
	</linearGradient>
	<path style="fill:url(#SVGID_00000116956580129662855500000013310492631217213841_);" d="M223,122h157v-11.4
		c0-8-6.5-14.6-14.6-14.6H208.6c-8,0-14.6,6.5-14.6,14.6v73.9c0,8,6.5,14.6,14.6,14.6h156.9c8,0,14.6-6.5,14.6-14.6V173H223V122z"/>
	
		<linearGradient id="SVGID_00000148644862509116872250000003513272229213896609_" gradientUnits="userSpaceOnUse" x1="616.5115" y1="173.354" x2="809.4885" y2="121.646">
		<stop  offset="0.1629" style="stop-color:#A5A6AD"/>
		<stop  offset="0.5185" style="stop-color:#C4C8CB"/>
		<stop  offset="0.7614" style="stop-color:#D5DADB"/>
	</linearGradient>
	<path style="fill:url(#SVGID_00000148644862509116872250000003513272229213896609_);" d="M791.4,96H634.6c-8,0-14.6,6.5-14.6,14.6
		V122h157v51H620v11.4c0,8,6.5,14.6,14.6,14.6h156.9c8,0,14.6-6.5,14.6-14.6v-73.9C806,102.5,799.5,96,791.4,96z"/>
	
		<linearGradient id="SVGID_00000113313982729305075120000005815674533216370310_" gradientUnits="userSpaceOnUse" x1="410.4027" y1="134.6992" x2="587.2864" y2="87.3034">
		<stop  offset="0.1629" style="stop-color:#A5A6AD"/>
		<stop  offset="0.5185" style="stop-color:#C4C8CB"/>
		<stop  offset="0.7614" style="stop-color:#D5DADB"/>
	</linearGradient>
	<path style="fill:url(#SVGID_00000113313982729305075120000005815674533216370310_);" d="M593,110.6c0-8-6.5-14.6-14.6-14.6H421.6
		c-8,0-14.6,6.5-14.6,14.6V122h186V110.6z"/>
	
		<linearGradient id="SVGID_00000138565817910447757730000001314181611549525154_" gradientUnits="userSpaceOnUse" x1="412.7136" y1="207.6966" x2="589.5973" y2="160.3008">
		<stop  offset="0.1629" style="stop-color:#A5A6AD"/>
		<stop  offset="0.5185" style="stop-color:#C4C8CB"/>
		<stop  offset="0.7614" style="stop-color:#D5DADB"/>
	</linearGradient>
	<path style="fill:url(#SVGID_00000138565817910447757730000001314181611549525154_);" d="M407,184.4c0,8,6.5,14.6,14.6,14.6h156.9
		c8,0,14.6-6.5,14.6-14.6V173H407V184.4z"/>
	
		<linearGradient id="SVGID_00000040541284863905233990000008044901420378787460_" gradientUnits="userSpaceOnUse" x1="333.7233" y1="163.2671" x2="453.2767" y2="131.2329">
		<stop  offset="0.1629" style="stop-color:#A5A6AD"/>
		<stop  offset="0.5185" style="stop-color:#C4C8CB"/>
		<stop  offset="0.7614" style="stop-color:#D5DADB"/>
	</linearGradient>
	<path style="fill:url(#SVGID_00000040541284863905233990000008044901420378787460_);" d="M337.1,133.2c-2.8,0-5.1,2.3-5.1,5.1v17.8
		c0,2.8,2.3,5.1,5.1,5.1h112.8c2.8,0,5.1-2.3,5.1-5.1v-17.8c0-2.8-2.3-5.1-5.1-5.1H337.1z"/>
	
		<linearGradient id="SVGID_00000024713952666304249340000002167430151278159755_" gradientUnits="userSpaceOnUse" x1="546.7233" y1="163.7671" x2="666.2767" y2="131.7329">
		<stop  offset="0.1629" style="stop-color:#A5A6AD"/>
		<stop  offset="0.5185" style="stop-color:#C4C8CB"/>
		<stop  offset="0.7614" style="stop-color:#D5DADB"/>
	</linearGradient>
	<path style="fill:url(#SVGID_00000024713952666304249340000002167430151278159755_);" d="M545,138.8v17.8c0,2.8,2.3,5.1,5.1,5.1
		h112.8c2.8,0,5.1-2.3,5.1-5.1v-17.8c0-2.8-2.3-5.1-5.1-5.1H550.1C547.3,133.8,545,136,545,138.8z"/>
</g>
<g>
	<path class="st11" d="M226,176h154v-3H223C223,174.7,224.3,176,226,176z"/>
	<path class="st11" d="M380,113.6v-3c0-8-6.5-14.6-14.6-14.6H208.6c-8,0-14.6,6.5-14.6,14.6v3c0-8,6.5-14.6,14.6-14.6h156.9
		C373.5,99,380,105.5,380,113.6z"/>
	<path class="st11" d="M620,176h154c1.7,0,3-1.3,3-3H620V176z"/>
	<path class="st11" d="M791.4,96H634.6c-8,0-14.6,6.5-14.6,14.6v3c0-8,6.5-14.6,14.6-14.6h156.9c8,0,14.6,6.5,14.6,14.6v-3
		C806,102.5,799.5,96,791.4,96z"/>
	<rect x="407" y="173" class="st11" width="186" height="3"/>
	<path class="st11" d="M421.6,99h156.9c8,0,14.6,6.5,14.6,14.6v-3c0-8-6.5-14.6-14.6-14.6H421.6c-8,0-14.6,6.5-14.6,14.6v3
		C407,105.5,413.5,99,421.6,99z"/>
	<path class="st11" d="M337.1,133.2c-2.8,0-5.1,2.3-5.1,5.1v2.8c0-2.8,2.3-5.1,5.1-5.1h112.8c2.8,0,5.1,2.3,5.1,5.1v-2.8
		c0-2.8-2.3-5.1-5.1-5.1H337.1z"/>
	<path class="st11" d="M545,138.3v2.8c0-2.8,2.3-5.1,5.1-5.1h112.8c2.8,0,5.1,2.3,5.1,5.1v-2.8c0-2.8-2.3-5.1-5.1-5.1H550.1
		C547.3,133.2,545,135.5,545,138.3z"/>
</g>
<g>
	<path class="st12" d="M774,119H620v3h157C777,120.3,775.7,119,774,119z"/>
	<path class="st12" d="M620,181.4v3c0,8,6.5,14.6,14.6,14.6h156.9c8,0,14.6-6.5,14.6-14.6v-3c0,8-6.5,14.6-14.6,14.6H634.6
		C626.5,196,620,189.5,620,181.4z"/>
	<path class="st12" d="M380,119H226c-1.7,0-3,1.3-3,3h157V119z"/>
	<path class="st12" d="M208.6,199h156.9c8,0,14.6-6.5,14.6-14.6v-3c0,8-6.5,14.6-14.6,14.6H208.6c-8,0-14.6-6.5-14.6-14.6v3
		C194,192.5,200.5,199,208.6,199z"/>
	<rect x="407" y="119" class="st12" width="186" height="3"/>
	<path class="st12" d="M578.4,196H421.6c-8,0-14.6-6.5-14.6-14.6v3c0,8,6.5,14.6,14.6,14.6h156.9c8,0,14.6-6.5,14.6-14.6v-3
		C593,189.5,586.5,196,578.4,196z"/>
	<path class="st12" d="M662.9,161.8c2.8,0,5.1-2.3,5.1-5.1v-2.8c0,2.8-2.3,5.1-5.1,5.1H550.1c-2.8,0-5.1-2.3-5.1-5.1v2.8
		c0,2.8,2.3,5.1,5.1,5.1H662.9z"/>
	<path class="st12" d="M455,156.7v-2.8c0,2.8-2.3,5.1-5.1,5.1H337.1c-2.8,0-5.1-2.3-5.1-5.1v2.8c0,2.8,2.3,5.1,5.1,5.1h112.8
		C452.7,161.8,455,159.5,455,156.7z"/>
</g>
<g>
	<path class="st11" d="M510.7,527l31.5,0c7.3,0,13.4-5.9,13.4-13.4l0-5.4c-0.3,7.3-6.3,12.8-13.4,12.8l-31.5,0l-0.3-114.8h0
		L510.7,527z"/>
	<path class="st11" d="M286,334l358.7,0c23.4,1.2,44.9,12.7,58.3,33.4c7.2,11.2,10.5,23.9,10.9,37.8c0.5-16.4-2.8-31-10.9-43.8
		c-13.4-20.7-35-32.2-58.3-33.4L286,328l0,72.7l0,0L286,334z"/>
	<path class="st11" d="M286.3,660.5l50.3-0.5c7.5,0,13.4-5.6,13.4-13.2l0-226.9c0,0,0,0,0,0l0,220.9c0,7.6-5.9,13.2-13.4,13.2
		l-50.3,0.5L286,728h0L286.3,660.5z"/>
	<path class="st11" d="M510.3,640.9v6c0,7.6,5.9,13.2,13.4,13.2l54.3,0.5l0-6l-54.4-0.5C516.2,654,510.3,648.4,510.3,640.9z"/>
</g>
<g>
	<path class="st12" d="M555.1,409.9c0-7.6-5.9-13.7-13.3-13.7l-31.5,0l0,4l31.5,0c7.4,0,13.3,6.1,13.3,13.7l0.5,90.1
		c0-0.1,0-0.3,0-0.4L555.1,409.9z"/>
	<path class="st12" d="M336.6,400.3c7.5,0,13.4,6.1,13.4,13.7v-4c0-7.6-5.9-13.7-13.4-13.7l-24.8,0l-25.8,0.5v4l25.8-0.5
		L336.6,400.3z"/>
	<polygon class="st12" points="577.9,724 286,724 286,728 577.9,728 578,654.5 578,654.5 	"/>
	<path class="st12" d="M713.9,403.6l-0.1,119.2c0,6.3-0.8,12.6-2.6,18.7c-4.5,15.5-13,29.7-26.3,39.9c-3.9,3-8.4,5.3-13.1,6.9
		c-12.9,4.4-26.4,6.6-40,6.7l-121.5,0.4v41.5c0,0,0,0,0,0v-37.5l121.5-0.4c13.6,0,27.1-2.3,40-6.7c4.7-1.6,9.2-3.9,13.1-6.9
		c13.3-10.2,21.9-24.4,26.3-39.9c1.8-6.1,2.6-12.4,2.6-18.7l0.1-119.2c0.1-2.4,0.2-4.8,0.1-7.1C714,401.5,713.9,402.5,713.9,403.6z"
		/>
</g>
<polygon points="228,850.4 228,855.4 500,781.3 772,855.4 772,850.4 500,776.3 "/>
<polygon points="156.5,940.5 156.5,945.5 500,852 843.5,945.5 843.5,940.5 500,847 "/>
<rect x="228" y="271" class="st12" width="544" height="5"/>
<rect x="194" y="236" width="612" height="4"/>
</svg>
