<svg width="424" height="237" viewBox="0 0 424 237" fill="none" xmlns="http://www.w3.org/2000/svg">
<g clip-path="url(#clip0_16097_197563)">
<path d="M374.711 0H48.6733C21.7907 0 -0.00195312 21.7926 -0.00195312 48.6752V185.861C-0.00195312 212.744 21.7907 234.537 48.6733 234.537H374.711C401.594 234.537 423.387 212.744 423.387 185.861V48.6752C423.387 21.7926 401.594 0 374.711 0Z" fill="url(#paint0_linear_16097_197563)"/>
<path d="M424 55.9619H395.796V64.3884H424V55.9619Z" fill="#231F20"/>
<path d="M28.187 36.9609H3.18846C2.18059 39.6541 1.42056 42.4794 0.941406 45.3874H28.2035V36.9609H28.187Z" fill="#231F20"/>
<path d="M28.187 55.9619H0.330078V64.3884H28.187V55.9619Z" fill="#231F20"/>
<path d="M395.796 36.9609V45.3874H423.388C422.909 42.4794 422.149 39.6541 421.141 36.9609H395.796Z" fill="#231F20"/>
<path d="M334.232 107.396C336.099 107.66 338.924 107.396 341.188 105.661C344.806 102.852 343.336 97.4987 338.643 96.9534C336.099 96.5404 333.422 97.0856 331.539 98.837C327.656 102.307 329.936 106.735 334.232 107.412V107.396Z" fill="#231F20"/>
<path d="M145.958 141.036C149.444 140.359 154.533 137.418 158.284 133.667C157.887 134.46 156.945 136.344 156.813 137.021C155.871 141.846 161.225 141.565 164.182 141.036C167.47 140.375 171.832 137.649 175.764 134.51C175.351 135.468 174.988 136.443 174.905 137.021C173.947 141.846 179.317 141.3 182.274 140.755C185.067 140.16 190.304 136.74 194.633 133.254C193.576 135.501 192.849 137.351 192.584 138.624C192.188 141.036 198.879 141.961 199.953 140.342C206.777 130.313 217.352 117.706 223.002 116.781C223.399 116.632 223.531 116.913 223.399 117.178C220.441 121.192 216.03 127.355 213.072 132.444C211.205 135.798 210.792 139.681 212.411 140.606C215.352 142.49 219.78 141.152 224.341 138.607C226.571 137.351 228.752 135.617 230.619 133.981C230.669 134.311 230.685 134.658 230.768 134.972C233.18 145.414 245.787 141.813 252.214 138.326C254.147 137.236 256.179 135.683 258.212 133.915C257.303 135.881 256.526 137.715 255.965 139.252C255.039 141.664 262.392 141.532 263.466 139.797C270.306 129.883 281.294 117.822 286.911 116.748C287.308 116.599 287.44 117.012 287.308 117.144C285.573 119.557 283.276 122.63 281.277 125.835C279.674 128.115 278.204 130.395 276.981 132.543C275.246 135.897 274.701 139.648 276.452 140.722C278.055 141.796 280.203 141.664 282.599 141.135C285.226 140.458 290.05 137.434 294.181 134.196C293.718 135.237 293.272 136.36 293.19 136.988C292.264 141.813 297.618 141.267 300.575 140.722C303.401 140.127 308.737 136.641 313.083 133.105C312.405 134.51 311.893 135.848 311.695 136.971C310.77 141.912 316.123 141.383 319.064 140.706C321.79 140.226 326.483 137.335 330.564 134.13C330.597 134.493 330.63 134.873 330.729 135.22C333.009 145.679 347.334 141.383 353.646 137.632C358.734 134.691 364.897 128.528 368.912 124.1C369.722 123.159 368.251 121.556 367.838 122.101C365.558 124.927 358.47 132.279 352.836 135.088C348.689 137.236 343.187 137.5 340.51 133.75C337.701 129.867 340.361 121.952 346.277 116.467C349.614 113.526 352.307 112.171 356.19 111.097C359.131 110.304 360.75 111.758 359.395 113.923C358.057 116.186 350.688 122.894 353.365 124.629C356.041 126.248 362.601 121.688 363.014 120.746C363.278 120.35 362.072 120.35 362.204 119.937C362.601 119.011 364.765 115.377 365.162 114.17C366.103 111.758 365.558 110.023 363.956 109.214C360.205 107.347 355.793 108.272 351.101 110.023C340.196 114.071 331.952 123.605 330.696 131.156C327.953 133.551 324.896 135.881 323.905 136.162C322.038 136.823 321.08 135.897 321.493 134.295C322.831 128.528 326.73 122.233 330.2 117.558C332.612 114.187 335.025 111.642 336.099 110.453C338.114 108.569 328.069 109.643 326.185 112.188C325.243 113.543 321.889 118.351 318.816 123.324C318.205 124.332 317.379 125.654 316.486 127.074C316.453 127.074 316.42 127.074 316.387 127.074C313.579 130.164 306.887 135.65 305.4 136.178C303.268 136.839 302.591 135.914 302.988 134.311C303.516 131.486 305.268 127.471 307.68 123.043C309.415 119.953 311.431 116.748 313.446 113.543H319.758C320.964 113.543 323.095 110.734 321.757 110.734H315.181C318.139 106.306 321.08 102.291 323.36 99.3497C325.64 96.3922 328.449 92.3773 331.125 89.7006C333.141 87.7014 322.286 88.7588 320.402 91.3033C317.858 94.6574 315.71 98.1271 310.621 106.306C309.679 107.793 308.737 109.263 307.812 110.734H303.252C302.178 110.734 299.898 113.543 301.368 113.543H306.061C304.177 116.764 302.178 119.838 300.294 123.043C299.254 124.877 298.229 126.711 297.188 128.545C294.512 131.139 290.084 134.923 288.233 135.914C285.821 137.12 284.069 135.501 284.879 132.956C285.821 129.735 288.762 125.852 291.571 122.25C294.792 118.218 297.998 114.6 298.675 112.733C299.617 110.453 297.073 109.115 294.792 109.115C287.291 108.718 276.172 119.97 269.744 126.133V125.852C271.083 123.324 272.57 121.027 274.024 118.896C275.891 116.07 278.055 113.41 280.583 110.585C281.393 109.775 280.847 109.511 279.245 109.643C276.568 109.775 272.404 110.585 270.934 112.452C267.167 117.442 263.598 123.307 260.773 128.677C254.676 134.328 246.183 139.929 241.045 134.427C240.648 133.898 239.442 132.015 239.558 130.015C244.118 129.619 252.693 125.042 258.724 120.499C271.991 110.321 263.945 105.893 251.487 110.453C240.632 114.484 232.123 123.555 230.718 130.891C227.463 133.733 224.241 135.98 223.349 136.178C220.656 136.839 220.392 134.708 220.937 132.824C222.804 126.265 233.395 116.335 234.75 112.601C235.692 110.321 233.147 109.115 230.867 108.982C223.217 108.718 213.188 119.292 206.744 125.472V125.191C210.908 118.086 215.451 110.982 220.54 103.613C225.365 96.7888 230.867 89.9484 237.162 82.8438C237.972 82.1829 238.236 81.6376 237.162 81.5055C234.618 81.1089 227.645 82.3151 226.307 84.0499C222.16 89.271 216.79 96.9044 211.569 104.819C206.215 112.799 201.11 121.027 197.508 127.62C194.468 130.759 188.454 135.666 187.049 136.178C184.918 136.839 184.24 135.914 184.637 134.311C185.166 131.486 186.917 127.471 189.329 123.043C191.064 119.953 193.063 116.748 195.079 113.543H201.374C202.58 113.543 204.728 110.734 203.39 110.734H196.831C199.788 106.306 202.729 102.291 205.009 99.3497C207.289 96.3922 210.098 92.3773 212.775 89.7006C214.774 87.7014 203.919 88.7588 202.052 91.3033C199.507 94.6574 197.359 98.1271 192.27 106.306C191.329 107.793 190.403 109.263 189.445 110.734H184.901C183.827 110.734 181.564 113.543 183.034 113.543H187.727C185.843 116.764 183.844 119.838 181.96 123.043C180.837 125.042 179.713 127.041 178.59 129.024C175.219 132.196 170.956 135.848 168.974 136.443C166.826 136.988 166.165 135.897 166.561 134.295C168.296 127.587 173.121 120.35 176.871 115.393C178.739 113.113 180.358 111.378 181.167 110.569C183.167 108.569 173.121 109.759 171.254 112.171C170.312 113.526 167.222 118.466 164.017 123.307C160.944 128.115 154.913 134.824 150.749 136.03C148.618 136.575 147.941 135.617 148.337 134.014C149.956 127.983 154.913 120.35 158.796 115.393C160.531 113.113 162.15 111.378 162.96 110.569C164.959 108.569 154.93 109.759 153.046 112.171C152.104 113.526 148.882 118.334 145.677 123.307C144.719 124.91 143.232 127.141 141.844 129.52C140.836 130.429 139.679 131.387 138.291 132.411C134.276 135.484 125.834 140.309 126.907 132.411C127.585 127.19 130.658 120.482 134.937 113.526H142.571C143.248 113.526 143.645 113.394 144.041 112.849L144.719 112.056C145.115 111.527 145.115 110.717 144.454 110.717H136.689C148.337 92.6251 166.165 73.0625 168.181 70.518C172.741 64.8838 161.489 66.1065 158.399 68.651C145.809 78.6966 126.247 95.9792 109.228 110.717H64.8821C63.6759 110.717 63.1472 110.717 62.2054 111.114C59.3966 112.188 55.6295 114.732 54.2911 116.203C53.7624 116.599 53.8946 117.144 54.5555 117.144C73.4407 115.261 89.2527 114.451 105.461 113.939C103.181 115.938 100.918 117.822 98.7697 119.689C92.0615 125.323 85.2378 130.28 78.0009 134.295C66.6169 140.706 53.7459 145.266 38.3469 147.81C35.6703 148.223 36.6121 150.222 38.0826 150.619C51.8954 154.502 59.2644 151.709 68.3683 147.265C83.8994 137.897 98.5218 126.1 112.847 113.774C116.597 113.642 121.025 113.642 124.776 113.642C112.847 130.66 104.668 149.149 116.201 148.355C123.107 147.86 132.409 140.986 139.134 135.038C138.886 135.716 138.688 136.377 138.589 136.971C137.647 141.796 143.017 141.515 145.958 140.986V141.036ZM252.082 113.295C258.245 110.618 259.451 113.295 255.7 117.987C253.288 121.06 246.993 125.885 240.153 127.504C240.962 122.415 245.787 115.988 252.082 113.295ZM116.333 110.75C125.586 102.836 134.557 94.9382 143.81 87.3048C143.133 88.3623 135.367 98.8375 126.792 110.75H116.35H116.333Z" fill="#231F20"/>
<path d="M155.541 169.669L375.175 151.874H140.919L155.541 169.669Z" fill="#231F20"/>
<path d="M48.2284 42.4959V60.935C48.2284 64.1239 47.6336 65.4292 45.5848 66.8005H58.4393C56.3575 65.7596 55.5809 64.19 55.5809 60.8855V56.0774H63.4456C72.3017 56.0774 77.2419 52.5416 77.2419 46.1805C77.2419 43.5534 76.4323 41.3724 74.78 39.6376C72.6156 37.3575 69.9224 36.5479 64.7674 36.5479H45.5518C47.6336 37.9027 48.2284 39.3071 48.2284 42.4959ZM55.5809 41.6698H63.5282C67.6093 41.6698 69.6085 43.1734 69.6085 46.1639C69.6085 49.6667 67.758 50.9224 62.7186 50.9224H55.5809V41.6533V41.6698Z" fill="#231F20"/>
<path d="M114.763 63.9744C114.763 63.0491 114.995 62.2395 115.391 61.4299L115.854 60.5212H133.335L134.012 62.1238C134.326 62.8508 134.508 63.5778 134.508 64.2057C134.508 65.2631 134.194 65.9405 133.368 66.8162H144.487C142.802 64.3874 142.207 63.363 141.348 61.496L130.873 38.2488C130.642 37.8027 130.542 37.5714 130.542 37.2905C130.542 36.9766 130.691 36.8444 131.005 36.5801H119.059C119.291 36.861 119.373 37.0262 119.373 37.2575C119.373 37.4392 119.324 37.5714 119.291 37.7201C119.241 37.8027 119.142 37.9349 119.059 38.1662L107.114 62.95C106.155 64.8996 105.973 65.2135 104.718 66.8162H116.102C115.061 65.8084 114.747 65.1805 114.747 63.9909L114.763 63.9744ZM124.842 41.0081L130.922 54.9366H118.349L124.842 41.0081Z" fill="#231F20"/>
<path d="M179.896 42.3967V60.9184C179.896 64.1403 179.219 65.5943 177.186 66.7839H189.165C187.083 65.2804 186.538 64.1073 186.538 60.9184V46.7421L186.439 43.8838L186.356 41.1575L199.029 65.0821L199.26 65.5282C199.393 65.71 199.442 65.9082 199.442 66.0404C199.442 66.2552 199.31 66.4369 199.029 66.7674H211.057C210.463 66.3048 210.38 66.0735 210.38 65.0325V42.3802C210.38 39.1253 211.107 37.5722 213.238 36.5312H201.028C203.11 37.5887 203.887 39.1253 203.887 42.3802V54.9043C203.887 55.6312 203.936 56.7217 204.118 58.2748C204.168 59.0018 204.25 60.0923 204.382 61.5959L192.222 38.2496L191.991 37.8035C191.858 37.5391 191.759 37.3078 191.759 37.1591C191.759 36.9443 191.908 36.7626 192.222 36.5312H177.153C179.235 37.7043 179.913 39.1583 179.913 42.3802L179.896 42.3967Z" fill="#231F20"/>
<path d="M250.266 42.3968V60.9185C250.266 64.1734 249.489 65.7266 247.457 66.784H260.476C258.395 65.7761 257.618 64.223 257.618 60.8689V42.3968C257.618 39.1419 258.395 37.5392 260.476 36.5479H247.407C249.489 37.6053 250.266 39.1419 250.266 42.3968Z" fill="#231F20"/>
<path d="M297.454 42.3967V60.9184C297.454 64.1403 296.776 65.5943 294.728 66.7839H306.723C304.624 65.2804 304.096 64.1073 304.096 60.9184V46.7421L303.997 43.8838L303.914 41.1575L316.587 65.0821L316.818 65.5282C316.967 65.71 316.983 65.9082 316.983 66.0404C316.983 66.2552 316.851 66.4369 316.587 66.7674H328.615C328.02 66.3048 327.938 66.0735 327.938 65.0325V42.3802C327.938 39.1253 328.665 37.5722 330.796 36.5312H318.586C320.684 37.5887 321.461 39.1253 321.461 42.3802V54.9043C321.461 55.6312 321.494 56.7217 321.676 58.2748C321.725 59.0018 321.824 60.0923 321.957 61.5959L309.796 38.2496L309.565 37.8035C309.416 37.5391 309.333 37.3078 309.333 37.1591C309.333 36.9443 309.482 36.7626 309.796 36.5312H294.728C296.809 37.7043 297.487 39.1583 297.487 42.3802L297.454 42.3967Z" fill="#231F20"/>
<path d="M378.034 36.5479H364.965C367.063 37.6053 367.823 39.1419 367.823 42.3968V60.9185C367.823 64.1734 367.047 65.7266 365.014 66.784H378.034C375.952 65.7761 375.176 64.223 375.176 60.8689V42.3968C375.176 39.1419 375.952 37.5392 378.034 36.5479Z" fill="#231F20"/>
<path d="M173.491 200.573L171.192 201.088L172.798 202.913L171.073 204.162L169.804 202.02L168.535 204.162L166.81 202.913L168.455 201.029L166.017 200.494L166.691 198.471L168.971 199.463L168.753 197.123H170.835L170.617 199.562L172.857 198.59L173.491 200.573ZM182.553 200.573L180.253 201.088L181.859 202.913L180.134 204.162L178.865 202.02L177.596 204.162L175.871 202.913L177.517 201.029L175.078 200.494L175.752 198.471L178.032 199.463L177.814 197.123H179.896L179.678 199.562L181.919 198.59L182.553 200.573ZM191.615 200.573L189.315 201.088L190.921 202.913L189.196 204.162L187.927 202.02L186.658 204.162L184.933 202.913L186.579 201.029L184.14 200.494L184.814 198.471L187.094 199.463L186.876 197.123H188.958L188.74 199.562L190.98 198.59L191.615 200.573ZM200.676 200.573L198.376 201.088L199.982 202.913L198.257 204.162L196.988 202.02L195.719 204.162L193.994 202.913L195.64 201.029L193.201 200.494L193.875 198.471L196.156 199.463L195.937 197.123H198.019L197.801 199.562L200.042 198.59L200.676 200.573ZM209.738 200.573L207.438 201.088L209.044 202.913L207.319 204.162L206.05 202.02L204.781 204.162L203.056 202.913L204.702 201.029L202.263 200.494L202.937 198.471L205.217 199.463L204.999 197.123H207.081L206.863 199.562L209.103 198.59L209.738 200.573ZM218.799 200.573L216.499 201.088L218.105 202.913L216.38 204.162L215.111 202.02L213.842 204.162L212.118 202.913L213.763 201.029L211.324 200.494L211.999 198.471L214.279 199.463L214.061 197.123H216.142L215.924 199.562L218.165 198.59L218.799 200.573ZM227.861 200.573L225.561 201.088L227.167 202.913L225.442 204.162L224.173 202.02L222.904 204.162L221.179 202.913L222.825 201.029L220.386 200.494L221.06 198.471L223.34 199.463L223.122 197.123H225.204L224.986 199.562L227.226 198.59L227.861 200.573ZM236.922 200.573L234.622 201.088L236.228 202.913L234.503 204.162L233.235 202.02L231.966 204.162L230.241 202.913L231.886 201.029L229.448 200.494L230.122 198.471L232.402 199.463L232.184 197.123H234.266L234.047 199.562L236.288 198.59L236.922 200.573Z" fill="#231F20"/>
</g>
<defs>
<linearGradient id="paint0_linear_16097_197563" x1="-2.62903" y1="21.3636" x2="423.37" y2="211.983" gradientUnits="userSpaceOnUse">
<stop stop-color="#ADA635"/>
<stop offset="0.08" stop-color="#C6BD23"/>
<stop offset="0.18" stop-color="#E2D710"/>
<stop offset="0.27" stop-color="#F3E704"/>
<stop offset="0.34" stop-color="#FAED00"/>
<stop offset="0.67" stop-color="#FAED00"/>
<stop offset="0.68" stop-color="#F8EC06"/>
<stop offset="0.7" stop-color="#F5EB11"/>
<stop offset="0.73" stop-color="#F5EB15"/>
<stop offset="1" stop-color="#D7B928"/>
</linearGradient>
<clipPath id="clip0_16097_197563">
<rect width="424" height="236.172" fill="white"/>
</clipPath>
</defs>
</svg>
