<svg width="82" height="82" viewBox="0 0 82 82" fill="none" xmlns="http://www.w3.org/2000/svg">
<path d="M42.0244 41.7518C43.8474 40.1738 45.3097 38.222 46.3118 36.029C47.314 33.836 47.8327 31.453 47.8327 29.0418C47.8327 24.511 46.0328 20.1658 42.8291 16.9621C39.6253 13.7583 35.2801 11.9585 30.7494 11.9585C26.2186 11.9585 21.8734 13.7583 18.6696 16.9621C15.4659 20.1658 13.666 24.511 13.666 29.0418C13.666 31.453 14.1847 33.836 15.1869 36.029C16.1891 38.222 17.6513 40.1738 19.4743 41.7518C14.6915 43.9176 10.6336 47.4151 7.78587 51.826C4.93812 56.237 3.42104 61.3748 3.41602 66.6252C3.41602 67.5313 3.77598 68.4004 4.41673 69.0411C5.05748 69.6819 5.92653 70.0418 6.83268 70.0418C7.73884 70.0418 8.60788 69.6819 9.24863 69.0411C9.88938 68.4004 10.2493 67.5313 10.2493 66.6252C10.2493 61.1882 12.4092 55.974 16.2537 52.1295C20.0982 48.285 25.3124 46.1252 30.7494 46.1252C36.1863 46.1252 41.4005 48.285 45.245 52.1295C49.0895 55.974 51.2494 61.1882 51.2494 66.6252C51.2494 67.5313 51.6093 68.4004 52.2501 69.0411C52.8908 69.6819 53.7599 70.0418 54.666 70.0418C55.5722 70.0418 56.4412 69.6819 57.082 69.0411C57.7227 68.4004 58.0827 67.5313 58.0827 66.6252C58.0777 61.3748 56.5606 56.237 53.7128 51.826C50.8651 47.4151 46.8072 43.9176 42.0244 41.7518ZM30.7494 39.2918C28.7221 39.2918 26.7404 38.6907 25.0548 37.5644C23.3692 36.4381 22.0554 34.8373 21.2796 32.9643C20.5038 31.0914 20.3008 29.0305 20.6963 27.0422C21.0918 25.0538 22.068 23.2275 23.5015 21.794C24.935 20.3605 26.7614 19.3843 28.7497 18.9888C30.738 18.5933 32.7989 18.7963 34.6719 19.5721C36.5448 20.3479 38.1456 21.6616 39.2719 23.3472C40.3982 25.0328 40.9994 27.0146 40.9994 29.0418C40.9994 31.7603 39.9194 34.3674 37.9972 36.2897C36.075 38.2119 33.4678 39.2918 30.7494 39.2918ZM64.0277 40.3852C66.2142 37.9229 67.6426 34.8811 68.1407 31.626C68.6388 28.3709 68.1855 25.0412 66.8354 22.0377C65.4853 19.0342 63.2958 16.4849 60.5306 14.6967C57.7654 12.9085 54.5424 11.9576 51.2494 11.9585C50.3432 11.9585 49.4742 12.3185 48.8334 12.9592C48.1927 13.6 47.8327 14.469 47.8327 15.3752C47.8327 16.2813 48.1927 17.1504 48.8334 17.7911C49.4742 18.4319 50.3432 18.7918 51.2494 18.7918C53.9678 18.7918 56.575 19.8717 58.4972 21.794C60.4194 23.7162 61.4994 26.3234 61.4994 29.0418C61.4945 30.8364 61.0186 32.5982 60.1192 34.1512C59.2198 35.7041 57.9285 36.9937 56.3744 37.891C55.8678 38.1832 55.4447 38.6005 55.1456 39.103C54.8465 39.6055 54.6814 40.1764 54.666 40.761C54.6517 41.341 54.7854 41.9151 55.0544 42.4292C55.3234 42.9433 55.7188 43.3804 56.2035 43.6993L57.536 44.5877L57.9802 44.8268C62.0986 46.7802 65.5731 49.8698 67.9944 53.7317C70.4156 57.5937 71.6829 62.0671 71.6469 66.6252C71.6469 67.5313 72.0068 68.4004 72.6476 69.0411C73.2883 69.6819 74.1574 70.0418 75.0635 70.0418C75.9697 70.0418 76.8387 69.6819 77.4795 69.0411C78.1202 68.4004 78.4802 67.5313 78.4802 66.6252C78.5081 61.382 77.1949 56.2189 74.6654 51.6262C72.1358 47.0336 68.474 43.164 64.0277 40.3852Z" fill="#111928"/>
</svg>
